<svg width="28" height="29" viewBox="0 0 28 29" fill="none" xmlns="http://www.w3.org/2000/svg">
<path d="M18.6578 2.96526C19.6682 1.96843 21.3707 2.77531 21.2341 4.2046L21.2145 4.34584C20.8171 6.61316 22.6366 8.68065 24.9462 8.50322L24.9473 8.50239C26.3826 8.39171 27.1995 10.2486 26.0252 11.2461L26.0242 11.246C24.2731 12.7355 24.3629 15.4933 26.2261 16.8478L26.2262 16.8468C27.4444 17.7338 26.7968 19.6677 25.3293 19.6706C23.0915 19.6752 21.4574 21.736 21.8643 23.8922L21.9093 24.1015C22.2723 25.5625 20.6566 26.5574 19.5569 25.7718L19.4519 25.6902C17.6843 24.1905 15.0009 24.7926 14.0048 26.8767C13.3763 28.1906 11.5104 27.9765 11.1613 26.6148L11.1327 26.4798C10.7523 24.274 8.46939 22.9797 6.41039 23.7766L6.21148 23.8605C4.94352 24.4406 3.59394 23.1025 4.21229 21.791L4.27814 21.6641C5.41773 19.6691 4.4092 17.1037 2.18787 16.4726C0.776352 16.0719 0.677162 14.0352 2.08939 13.5113L2.09022 13.5124C4.25083 12.714 5.0854 10.0839 3.80279 8.17514C2.94347 6.89636 4.23213 5.33075 5.58442 5.8266L5.58525 5.8277C7.76067 6.62504 10.0703 5.12755 10.3026 2.8379L10.3027 2.83693C10.4574 1.30592 12.414 0.92927 13.1389 2.20261C14.2851 4.2146 17.0089 4.59102 18.6578 2.96526Z" fill="#66CAA5" stroke="#BD92CE" stroke-width="2"/>
</svg>
