<svg width="28" height="28" viewBox="0 0 28 28" fill="none" xmlns="http://www.w3.org/2000/svg">
<rect width="28" height="28" fill="#F5F5F5"/>
<path d="M-2193 -5975C-2193 -5976.1 -2192.1 -5977 -2191 -5977H19949C19950.1 -5977 19951 -5976.1 19951 -5975V4648C19951 4649.1 19950.1 4650 19949 4650H-2191C-2192.1 4650 -2193 4649.1 -2193 4648V-5975Z" fill="#A0A0A0"/>
<path d="M-2191 -5977V-5976H19949V-5977V-5978H-2191V-5977ZM19951 -5975H19950V4648H19951H19952V-5975H19951ZM19949 4650V4649H-2191V4650V4651H19949V4650ZM-2193 4648H-2192V-5975H-2193H-2194V4648H-2193ZM-2191 4650V4649C-2191.55 4649 -2192 4648.55 -2192 4648H-2193H-2194C-2194 4649.66 -2192.66 4651 -2191 4651V4650ZM19951 4648H19950C19950 4648.55 19949.6 4649 19949 4649V4650V4651C19950.7 4651 19952 4649.66 19952 4648H19951ZM19949 -5977V-5976C19949.6 -5976 19950 -5975.55 19950 -5975H19951H19952C19952 -5976.66 19950.7 -5978 19949 -5978V-5977ZM-2191 -5977V-5978C-2192.66 -5978 -2194 -5976.66 -2194 -5975H-2193H-2192C-2192 -5975.55 -2191.55 -5976 -2191 -5976V-5977Z" fill="black" fill-opacity="0.1"/>
<path d="M-1061 -812C-1061 -867.229 -1016.23 -912 -961 -912H2753C2808.23 -912 2853 -867.228 2853 -812V3383C2853 3438.23 2808.23 3483 2753 3483H-961C-1016.23 3483 -1061 3438.23 -1061 3383V-812Z" fill="#E2E2E2"/>
<path d="M-961 -912V-911H2753V-912V-913H-961V-912ZM2853 -812H2852V3383H2853H2854V-812H2853ZM2753 3483V3482H-961V3483V3484H2753V3483ZM-1061 3383H-1060V-812H-1061H-1062V3383H-1061ZM-961 3483V3482C-1015.68 3482 -1060 3437.68 -1060 3383H-1061H-1062C-1062 3438.78 -1016.78 3484 -961 3484V3483ZM2853 3383H2852C2852 3437.68 2807.68 3482 2753 3482V3483V3484C2808.78 3484 2854 3438.78 2854 3383H2853ZM2753 -912V-911C2807.68 -911 2852 -866.676 2852 -812H2853H2854C2854 -867.781 2808.78 -913 2753 -913V-912ZM-961 -912V-913C-1016.78 -913 -1062 -867.781 -1062 -812H-1061H-1060C-1060 -866.676 -1015.68 -911 -961 -911V-912Z" fill="black" fill-opacity="0.1"/>
<g clip-path="url(#clip0_1_2)">
<rect width="1440" height="1024" transform="translate(-625 -374)" fill="white"/>
<rect x="-31.5" y="-31.5" width="359" height="298" rx="31.5" stroke="#BD92CE"/>
<path d="M28 13.9996C28 10.9788 25.2232 8.34062 21.0892 6.91229C19.6598 2.77757 17.0214 0 14.0005 0C10.9796 0 8.3402 2.77757 6.91178 6.91229C2.77677 8.34062 0 10.9788 0 13.9996C0 17.0203 2.77677 19.6595 6.91178 21.0878C8.3402 25.2226 10.9796 28 14.0005 28C17.0214 28 19.6598 25.2226 21.0892 21.0878C25.2232 19.6595 28 17.0203 28 13.9996Z" fill="#BD92CE"/>
</g>
<defs>
<clipPath id="clip0_1_2">
<rect width="1440" height="1024" fill="white" transform="translate(-625 -374)"/>
</clipPath>
</defs>
</svg>
