<svg width="28" height="28" viewBox="0 0 28 28" fill="none" xmlns="http://www.w3.org/2000/svg">
<path d="M16.4025 1.77143C16.9072 3.35712 18.7533 4.03671 20.1466 3.15099C22.2216 1.83155 24.7505 3.97873 23.828 6.27837C23.2077 7.8222 24.1896 9.54425 25.8204 9.77292C28.2475 10.1122 28.8211 13.4038 26.6538 14.5633C25.199 15.3427 24.8576 17.301 25.9614 18.5367C27.606 20.3779 25.9561 23.2712 23.5598 22.7505C21.9502 22.4005 20.4456 23.6782 20.5071 25.3431C20.5982 27.8233 17.4968 28.9665 15.9921 27.0072C14.9817 25.6921 13.0169 25.6921 12.0064 27.0072C10.5018 28.9665 7.40027 27.8233 7.49146 25.3431C7.55296 23.6782 6.04832 22.4005 4.43979 22.7505C2.04343 23.2712 0.392528 20.3779 2.03711 18.5367C3.14091 17.301 2.80054 15.3427 1.34577 14.5633C-0.820496 13.4038 -0.24793 10.1122 2.17917 9.77292C3.80997 9.54425 4.79182 7.8222 4.17258 6.27837C3.24797 3.97873 5.77689 1.83155 7.85196 3.15099C9.2463 4.03671 11.0924 3.35712 11.5981 1.77143C12.3488 -0.590479 15.6497 -0.590479 16.4025 1.77143Z" fill="#F1CD21"/>
</svg>
